<svg width="14" height="14" viewBox="0 0 14 14" fill="none" xmlns="http://www.w3.org/2000/svg">
<path d="M10.4493 9.25959C10.266 9.46682 10.0737 9.67145 9.87257 9.87257C6.96403 12.7811 3.3201 13.8529 1.73362 12.2664C0.645974 11.1787 0.807724 9.12405 1.95419 7.00227M3.52581 4.76863C3.71654 4.55176 3.91719 4.33767 4.12743 4.12743C7.03597 1.21889 10.6799 0.147147 12.2664 1.73362C13.3548 2.82202 13.1921 4.87878 12.0434 7.00211M9.87257 4.12743C12.7811 7.03597 13.8529 10.6799 12.2664 12.2664C10.6799 13.8529 7.03597 12.7811 4.12743 9.87257C1.21889 6.96403 0.147147 3.3201 1.73362 1.73362C3.3201 0.147147 6.96403 1.21889 9.87257 4.12743ZM7.66298 6.98586C7.66298 7.35979 7.35984 7.66293 6.98591 7.66293C6.61197 7.66293 6.30883 7.35979 6.30883 6.98586C6.30883 6.61192 6.61197 6.30879 6.98591 6.30879C7.35984 6.30879 7.66298 6.61192 7.66298 6.98586Z" stroke="#DDDDDD" stroke-linecap="round" stroke-linejoin="round"/>
</svg>
